<svg preserveAspectRatio="none" width="100%" height="100%" overflow="visible" style="display: block;" viewBox="0 0 28 27" fill="none" xmlns="http://www.w3.org/2000/svg">
<path id="Vector" fill-rule="evenodd" clip-rule="evenodd" d="M13.7211 0.00179678C17.1191 -0.000837428 20.3931 1.23866 22.8894 3.47279C25.3857 5.70692 26.9206 8.77128 27.1876 12.054C27.4546 15.3368 26.434 18.5963 24.3297 21.1818C22.2254 23.7673 19.1922 25.4885 15.8357 26.0018V16.8604H18.9701L19.57 13.0817H15.8357V10.6256C15.8081 10.3441 15.8465 10.0602 15.9482 9.79516C16.0498 9.53011 16.212 9.29077 16.4226 9.09506C16.6332 8.89936 16.8868 8.75235 17.1643 8.66505C17.4419 8.57775 17.7362 8.55242 18.0253 8.59095H19.7199V5.36457C18.7273 5.21433 17.725 5.13177 16.7205 5.1175C16.0246 5.06709 15.3257 5.1653 14.6732 5.40521C14.0207 5.64512 13.4305 6.02088 12.9442 6.50597C12.4579 6.99106 12.0875 7.57367 11.8589 8.21266C11.6303 8.85166 11.5493 9.53148 11.6215 10.2041V13.1108H8.18711V16.8894H11.6065V26.0309C8.20537 25.5645 5.1157 23.8591 2.96696 21.2621C0.818217 18.665 -0.22793 15.3718 0.041661 12.0534C0.311252 8.73491 1.8763 5.64091 4.41793 3.40172C6.95957 1.16254 10.2866 -0.0533458 13.7211 0.00179678V0.00179678Z" fill="var(--fill-0, #787878)"/>
</svg>
