<svg preserveAspectRatio="none" width="100%" height="100%" overflow="visible" style="display: block;" viewBox="0 0 168 20" fill="none" xmlns="http://www.w3.org/2000/svg">
<g id="footer-logo">
<path d="M7.97577 0H13.3943C13.9936 0 14.3681 0.260707 14.518 0.782121L20.0863 15.9031C20.103 15.9505 20.1113 16.0295 20.1113 16.1401C20.1113 16.2349 20.053 16.3376 19.9365 16.4482C19.8366 16.543 19.7118 16.5904 19.5619 16.5904H14.9425C14.4431 16.5904 14.1184 16.3929 13.9686 15.9979L13.3693 14.4337H8.00074L6.42762 16.5904C6.92702 16.5904 6.2778 16.9855 6.42762 16.5904H1.80813C1.65831 16.5904 1.52513 16.543 1.40861 16.4482C1.30873 16.3376 1.25879 16.2349 1.25879 16.1401C1.25879 16.0295 1.26711 15.9505 1.28376 15.9031L6.85211 0.782121C7.00193 0.260707 7.37648 0 7.97577 0Z" fill="#575458"/>
<path d="M23.0866 11.5185H25.5837C26.416 11.5185 26.8738 11.4079 26.957 11.1867L21.139 0.73472C21.1223 0.687319 21.114 0.632017 21.114 0.568815C21.1806 0.189605 21.3887 0 21.7382 0H26.957C27.3066 0 27.573 0.189605 27.7561 0.568815L30.0783 5.23784L31.9261 0.568815C32.0926 0.189605 32.3756 0 32.7751 0H37.9439C38.0937 0 38.2269 0.0553017 38.3434 0.165905C38.46 0.260707 38.5182 0.37131 38.5182 0.497714C38.5182 0.624118 38.5099 0.70312 38.4933 0.73472L33.5242 11.7555C32.6585 13.6832 31.743 14.9709 30.7775 15.6187C29.8286 16.2665 28.3054 16.5904 26.2079 16.5904H23.0866C22.9035 16.5904 22.7454 16.5272 22.6122 16.4008C22.479 16.2744 22.4124 16.1243 22.4124 15.9505V12.1584C22.4124 11.9846 22.479 11.8345 22.6122 11.7081C22.7454 11.5817 22.9035 11.5185 23.0866 11.5185Z" fill="#575458"/>
<path d="M43.0763 0H56.7599C56.943 0 57.1012 0.0632018 57.2344 0.189605C57.3675 0.316009 57.4341 0.466113 57.4341 0.639917V11.3763H58.5078C58.691 11.3763 58.8491 11.4395 58.9823 11.5659C59.1155 11.6923 59.182 11.8424 59.182 12.0162V18.8657C59.182 19.0395 59.1155 19.1896 58.9823 19.316C58.8491 19.4424 58.691 19.5056 58.5078 19.5056H53.6137C53.4306 19.5056 53.2724 19.4424 53.1392 19.316C53.0061 19.1896 52.9395 19.0395 52.9395 18.8657V16.5904H46.1476V18.8657C46.1476 19.0395 46.081 19.1896 45.9478 19.316C45.8147 19.4424 45.6565 19.5056 45.4734 19.5056H40.5792C40.3961 19.5056 40.238 19.4424 40.1048 19.316C39.9716 19.2054 39.905 19.0553 39.905 18.8657V12.0162C39.905 11.8424 39.9716 11.6923 40.1048 11.5659C40.238 11.4395 40.3961 11.3763 40.5792 11.3763H40.6791C41.1785 11.3763 41.5864 11.2183 41.9027 10.9023C42.2356 10.5863 42.4021 10.136 42.4021 9.55136V0.639917C42.4021 0.466113 42.4687 0.316009 42.6018 0.189605C42.735 0.0632018 42.8931 0 43.0763 0ZM51.1916 5.21414H48.6446V9.57506C48.6446 10.4599 48.5697 11.0603 48.4199 11.3763H51.1916V5.21414Z" fill="#575458"/>
<path d="M62.7296 0H67.2492C67.4323 0 67.5904 0.0632018 67.7236 0.189605C67.8568 0.316009 67.9234 0.466113 67.9234 0.639917V7.11019L72.1433 0.545115C72.3597 0.181705 72.701 0 73.1671 0H77.1124C77.2955 0 77.4537 0.0632018 77.5868 0.189605C77.72 0.316009 77.7866 0.466113 77.7866 0.639917V15.9505C77.7866 16.1243 77.72 16.2744 77.5868 16.4008C77.4537 16.5272 77.2955 16.5904 77.1124 16.5904H72.5928C72.4097 16.5904 72.2515 16.5272 72.1184 16.4008C71.9852 16.2744 71.9186 16.1243 71.9186 15.9505V10.0017L67.6986 16.0453C67.4489 16.4087 67.1077 16.5904 66.6749 16.5904H62.7296C62.5464 16.5904 62.3883 16.5272 62.2551 16.4008C62.122 16.2744 62.0554 16.1243 62.0554 15.9505V0.639917C62.0554 0.466113 62.122 0.316009 62.2551 0.189605C62.3883 0.0632018 62.5464 0 62.7296 0Z" fill="#575458"/>
<path d="M80.8271 0H95.4596C95.6428 0 95.8009 0.0632018 95.9341 0.189605C96.0672 0.316009 96.1338 0.466113 96.1338 0.639917V4.45572C96.1338 4.62952 96.0672 4.77963 95.9341 4.90603C95.8009 5.03244 95.6428 5.09564 95.4596 5.09564H91.3146V15.9505C91.3146 16.1243 91.248 16.2744 91.1148 16.4008C90.9816 16.5272 90.8235 16.5904 90.6404 16.5904H85.6464C85.4632 16.5904 85.3051 16.5272 85.1719 16.4008C85.0387 16.2744 84.9722 16.1243 84.9722 15.9505V5.09564H80.8271C80.644 5.09564 80.4858 5.03244 80.3527 4.90603C80.2195 4.77963 80.1529 4.62952 80.1529 4.45572V0.639917C80.1529 0.466113 80.2195 0.316009 80.3527 0.189605C80.4858 0.0632018 80.644 0 80.8271 0Z" fill="#575458"/>
<path d="M104.504 11.9688H112.195C112.378 11.9688 112.536 12.032 112.669 12.1584C112.802 12.2848 112.869 12.4349 112.869 12.6087V15.9505C112.869 16.1243 112.802 16.2744 112.669 16.4008C112.536 16.5272 112.378 16.5904 112.195 16.5904H99.1851C99.002 16.5904 98.8438 16.5272 98.7106 16.4008C98.5775 16.2744 98.5109 16.1243 98.5109 15.9505V0.639917C98.5109 0.466113 98.5775 0.316009 98.7106 0.189605C98.8438 0.0632018 99.002 0 99.1851 0H111.995C112.178 0 112.336 0.0632018 112.469 0.189605C112.602 0.316009 112.669 0.466113 112.669 0.639917V3.98171C112.669 4.15551 112.602 4.30562 112.469 4.43202C112.336 4.55842 112.178 4.62162 111.995 4.62162H104.504V6.11476H111.445C111.629 6.11476 111.787 6.17797 111.92 6.30437C112.053 6.43077 112.12 6.58088 112.12 6.75468V9.83576C112.12 10.0096 112.053 10.1597 111.92 10.2861C111.787 10.4125 111.629 10.4757 111.445 10.4757H104.504V11.9688Z" fill="#575458"/>
<path d="M116.547 0H123.988C126.385 0 128.258 0.489813 129.607 1.46944C130.955 2.44907 131.629 3.8948 131.629 5.80666C131.629 7.71851 130.955 9.13264 129.607 10.0491C128.275 10.9655 126.402 11.4237 123.988 11.4237H122.365V15.9505C122.365 16.1243 122.299 16.2744 122.165 16.4008C122.032 16.5272 121.874 16.5904 121.691 16.5904H116.547C116.364 16.5904 116.206 16.5272 116.073 16.4008C115.94 16.2744 115.873 16.1243 115.873 15.9505V0.639917C115.873 0.466113 115.94 0.316009 116.073 0.189605C116.206 0.0632018 116.364 0 116.547 0ZM122.24 4.40832V7.03909H123.988C124.288 7.03909 124.554 6.93639 124.787 6.73098C125.02 6.50978 125.137 6.20167 125.137 5.80666C125.137 5.41165 125.045 5.07984 124.862 4.81123C124.679 4.54262 124.388 4.40832 123.988 4.40832H122.24Z" fill="#575458"/>
<path d="M134.421 0H138.941C139.124 0 139.282 0.0632018 139.415 0.189605C139.549 0.316009 139.615 0.466113 139.615 0.639917V7.11019L143.835 0.545115C144.052 0.181705 144.393 0 144.859 0H148.804C148.987 0 149.145 0.0632018 149.279 0.189605C149.412 0.316009 149.478 0.466113 149.478 0.639917V15.9505C149.478 16.1243 149.412 16.2744 149.279 16.4008C149.145 16.5272 148.987 16.5904 148.804 16.5904H144.285C144.101 16.5904 143.943 16.5272 143.81 16.4008C143.677 16.2744 143.61 16.1243 143.61 15.9505V10.0017L139.39 16.0453C139.141 16.4087 138.799 16.5904 138.367 16.5904H134.421C134.238 16.5904 134.08 16.5272 133.947 16.4008C133.814 16.2744 133.747 16.1243 133.747 15.9505V0.639917C133.747 0.466113 133.814 0.316009 133.947 0.189605C134.08 0.0632018 134.238 0 134.421 0Z" fill="#575458"/>
<path d="M154.991 10.4046C153.193 9.31435 152.294 7.82121 152.294 5.92516C152.294 4.01331 152.968 2.55177 154.317 1.54054C155.665 0.513514 157.538 0 159.935 0H167.326C167.509 0 167.667 0.0632018 167.801 0.189605C167.934 0.316009 168 0.466113 168 0.639917V15.9505C168 16.1243 167.934 16.2744 167.801 16.4008C167.667 16.5272 167.509 16.5904 167.326 16.5904H162.432C162.249 16.5904 162.091 16.5272 161.958 16.4008C161.824 16.2744 161.758 16.1243 161.758 15.9505V11.4237H160.734L158.587 15.9505C158.387 16.3771 158.029 16.5904 157.513 16.5904H152.394C152.244 16.5904 152.111 16.543 151.995 16.4482C151.895 16.3376 151.845 16.227 151.845 16.1164C151.845 16.0058 151.87 15.9031 151.92 15.8083L154.991 10.4046ZM161.758 6.92059V4.40832H159.935C159.552 4.40832 159.261 4.54262 159.061 4.81123C158.878 5.06404 158.786 5.36424 158.786 5.71185C158.786 6.05946 158.886 6.35177 159.086 6.58878C159.286 6.80998 159.569 6.92059 159.935 6.92059H161.758Z" fill="#575458"/>
<path d="M13.2135 7.71956L3.34347 0.629393L0 13.8429L13.2135 7.71956Z" fill="#827D7B"/>
<path d="M13.2135 7.86534L5.15955 7.55073L0 13.8429L13.2135 7.86534Z" fill="#424242"/>
<path d="M13.2135 7.86534L4.82377 7.85136L3.46047 0.62908L13.2135 7.86534Z" fill="var(--fill-0, #646464)"/>
</g>
</svg>
