<svg xmlns="http://www.w3.org/2000/svg" width="25" height="19" viewBox="0 0 25 19" fill="none">
    <path d="M12.5 0C10.5 0 9 1.5 9 3.5C9 5.5 10.5 7 12.5 7C14.5 7 16 5.5 16 3.5C16 1.5 14.5 0 12.5 0ZM12.5 9C9.5 9 7 11.5 7 14.5V17H18V14.5C18 11.5 15.5 9 12.5 9ZM20 6C21.5 6 22.5 5 22.5 3.5C22.5 2 21.5 1 20 1C18.5 1 17.5 2 17.5 3.5C17.5 5 18.5 6 20 6ZM20 8C18.5 8 17 9.5 17 11V13H23V11C23 9.5 21.5 8 20 8ZM5 6C6.5 6 7.5 5 7.5 3.5C7.5 2 6.5 1 5 1C3.5 1 2.5 2 2.5 3.5C2.5 5 3.5 6 5 6ZM5 8C3.5 8 2 9.5 2 11V13H8V11C8 9.5 6.5 8 5 8Z" fill="#ADADAD"/>
</svg> 