<svg preserveAspectRatio="none" width="100%" height="100%" overflow="visible" style="display: block;" viewBox="0 0 74 48" fill="none" xmlns="http://www.w3.org/2000/svg">
<g id="hero-labels">
<g id="18plus-icon">
<path d="M0 18C0 13.5817 3.58172 10 8 10H25C29.4183 10 33 13.5817 33 18V30C33 34.4183 29.4183 38 25 38H8C3.58172 38 0 34.4183 0 30V18Z" fill="#EC8F32"/>
<path d="M7.10953 21.412C7.34153 21.316 7.58153 21.208 7.82953 21.088C8.08553 20.96 8.33353 20.824 8.57353 20.68C8.81353 20.528 9.04153 20.372 9.25753 20.212C9.48153 20.044 9.68153 19.868 9.85753 19.684H11.1055V28H9.31753V22.012C9.07753 22.172 8.80953 22.32 8.51353 22.456C8.21753 22.584 7.92953 22.696 7.64953 22.792L7.10953 21.412Z" fill="var(--fill-0, white)"/>
<path d="M19.4498 25.684C19.4498 26.044 19.3858 26.376 19.2578 26.68C19.1378 26.976 18.9538 27.236 18.7058 27.46C18.4578 27.684 18.1458 27.86 17.7698 27.988C17.4018 28.108 16.9738 28.168 16.4858 28.168C15.9258 28.168 15.4578 28.092 15.0818 27.94C14.7138 27.78 14.4138 27.584 14.1818 27.352C13.9578 27.12 13.7978 26.868 13.7018 26.596C13.6058 26.316 13.5578 26.06 13.5578 25.828C13.5578 25.588 13.5898 25.368 13.6538 25.168C13.7178 24.968 13.8058 24.788 13.9178 24.628C14.0298 24.46 14.1538 24.308 14.2898 24.172C14.4338 24.036 14.5858 23.908 14.7458 23.788C14.4018 23.508 14.1458 23.232 13.9778 22.96C13.8178 22.688 13.7378 22.34 13.7378 21.916C13.7378 21.596 13.8018 21.288 13.9298 20.992C14.0658 20.696 14.2538 20.44 14.4938 20.224C14.7338 20 15.0218 19.824 15.3578 19.696C15.7018 19.56 16.0818 19.492 16.4978 19.492C16.9858 19.492 17.4018 19.564 17.7458 19.708C18.0978 19.844 18.3858 20.02 18.6098 20.236C18.8338 20.452 18.9938 20.696 19.0898 20.968C19.1938 21.232 19.2458 21.496 19.2458 21.76C19.2458 22.144 19.1418 22.504 18.9338 22.84C18.7338 23.168 18.4818 23.428 18.1778 23.62C18.6338 23.916 18.9578 24.228 19.1498 24.556C19.3498 24.876 19.4498 25.252 19.4498 25.684ZM15.2978 25.756C15.2978 25.852 15.3178 25.96 15.3578 26.08C15.4058 26.192 15.4778 26.296 15.5738 26.392C15.6698 26.488 15.7938 26.568 15.9458 26.632C16.0978 26.696 16.2818 26.728 16.4978 26.728C16.9138 26.728 17.2178 26.628 17.4098 26.428C17.6018 26.228 17.6978 26.004 17.6978 25.756C17.6978 25.572 17.6538 25.408 17.5658 25.264C17.4858 25.12 17.3738 24.996 17.2298 24.892C17.0858 24.78 16.9138 24.684 16.7138 24.604C16.5218 24.516 16.3138 24.436 16.0898 24.364C15.8658 24.532 15.6778 24.728 15.5258 24.952C15.3738 25.176 15.2978 25.444 15.2978 25.756ZM17.5178 21.808C17.5178 21.72 17.4978 21.628 17.4578 21.532C17.4258 21.428 17.3658 21.332 17.2778 21.244C17.1978 21.156 17.0938 21.084 16.9658 21.028C16.8378 20.964 16.6818 20.932 16.4978 20.932C16.3218 20.932 16.1698 20.96 16.0418 21.016C15.9138 21.072 15.8058 21.148 15.7178 21.244C15.6378 21.332 15.5778 21.428 15.5378 21.532C15.4978 21.636 15.4778 21.736 15.4778 21.832C15.4778 22.088 15.5698 22.328 15.7538 22.552C15.9458 22.776 16.2698 22.968 16.7258 23.128C16.9818 22.968 17.1778 22.784 17.3138 22.576C17.4498 22.368 17.5178 22.112 17.5178 21.808Z" fill="var(--fill-0, white)"/>
<path d="M20.4982 23.668H22.5022V21.448H24.1342V23.668H26.1382V25.168H24.1342V27.388H22.5022V25.168H20.4982V23.668Z" fill="var(--fill-0, white)"/>
</g>
<path id="bookmark-icon" d="M51 13.8889C51 12.2934 52.3431 11 54 11H69C70.6569 11 72 12.2934 72 13.8889V37L61.5 31.9444L51 37V13.8889Z" stroke="var(--stroke-2, #EC8F32)" stroke-width="2.3" stroke-linecap="round" stroke-linejoin="round"/>
</g>
</svg>
