<svg preserveAspectRatio="none" width="100%" height="100%" overflow="visible" style="display: block;" viewBox="0 0 138 35" fill="none" xmlns="http://www.w3.org/2000/svg">
<g id="hero-player-controls">
<g id="hero-player-back">
<path d="M25 17.4764C25.0128 24.3635 19.3227 29.9952 12.3454 30C9.0766 30.0023 6.0966 28.7821 3.84874 26.7771C3.58847 26.545 3.57811 26.1449 3.82612 25.9001L4.69216 25.0453C4.92342 24.817 5.29348 24.8104 5.53751 25.0254C7.3427 26.6151 9.72429 27.5806 12.3363 27.5806C17.9813 27.5806 22.5489 23.0712 22.5489 17.5C22.5489 11.928 17.9804 7.41935 12.3363 7.41935C9.50124 7.41935 6.93848 8.55716 5.08922 10.3953L7.59597 12.8355C7.98615 13.2153 7.71367 13.871 7.16571 13.871H0.61276C0.274363 13.871 0 13.6001 0 13.2661V6.88725C0 6.3504 0.655806 6.07964 1.04302 6.4566L3.34582 8.69824C5.64014 6.41467 8.82057 5 12.3363 5C19.3223 5 24.9871 10.5837 25 17.4764Z" fill="var(--fill-0, white)"/>
<path d="M8.72 16.608C9.02933 16.4853 9.33867 16.328 9.648 16.136C9.96267 15.944 10.24 15.7173 10.48 15.456H11.16V21H10.192V16.752C10.048 16.864 9.86667 16.9733 9.648 17.08C9.42933 17.1867 9.21867 17.2747 9.016 17.344L8.72 16.608Z" fill="var(--fill-0, white)"/>
<path d="M15.6109 19.416C15.6109 19.24 15.5762 19.0827 15.5069 18.944C15.4375 18.8053 15.3149 18.688 15.1389 18.592C14.9682 18.496 14.7362 18.424 14.4429 18.376C14.1549 18.328 13.7895 18.304 13.3469 18.304C13.4055 17.792 13.4509 17.3067 13.4829 16.848C13.5149 16.384 13.5415 15.92 13.5629 15.456H16.3949V16.272H14.3869C14.3815 16.3627 14.3735 16.4667 14.3629 16.584C14.3575 16.696 14.3495 16.8107 14.3389 16.928C14.3335 17.0453 14.3255 17.1573 14.3149 17.264C14.3042 17.3707 14.2935 17.4613 14.2829 17.536C15.0722 17.5787 15.6535 17.76 16.0269 18.08C16.4055 18.3947 16.5949 18.8267 16.5949 19.376C16.5949 19.6267 16.5522 19.8587 16.4669 20.072C16.3815 20.2853 16.2509 20.4693 16.0749 20.624C15.8989 20.7787 15.6775 20.9013 15.4109 20.992C15.1442 21.0773 14.8322 21.12 14.4749 21.12C14.3309 21.12 14.1842 21.1093 14.0349 21.088C13.8855 21.0667 13.7415 21.04 13.6029 21.008C13.4695 20.9813 13.3495 20.952 13.2429 20.92C13.1362 20.888 13.0562 20.8587 13.0029 20.832L13.1869 20.016C13.2989 20.0693 13.4589 20.128 13.6669 20.192C13.8802 20.2507 14.1389 20.28 14.4429 20.28C14.6509 20.28 14.8295 20.2587 14.9789 20.216C15.1282 20.168 15.2482 20.104 15.3389 20.024C15.4349 19.944 15.5042 19.8533 15.5469 19.752C15.5895 19.6453 15.6109 19.5333 15.6109 19.416Z" fill="var(--fill-0, white)"/>
</g>
<g id="hero-player-play">
<path d="M84.5001 19.4293L53 0V35L84.5001 19.4293Z" fill="#EC8F32"/>
<path d="M84.5001 19.3333L66.1251 19.25L53 35L84.5001 19.3333Z" fill="#DA6D00"/>
<path d="M84.5001 19.299L66.1251 19.25L53 0L84.5001 19.299Z" fill="var(--fill-0, #EC8117)"/>
</g>
<g id="hero-player-forward">
<path d="M121.22 16.608C121.529 16.4853 121.839 16.328 122.148 16.136C122.463 15.944 122.74 15.7173 122.98 15.456H123.66V21H122.692V16.752C122.548 16.864 122.367 16.9733 122.148 17.08C121.929 17.1867 121.719 17.2747 121.516 17.344L121.22 16.608Z" fill="var(--fill-0, white)"/>
<path d="M128.111 19.416C128.111 19.24 128.076 19.0827 128.007 18.944C127.938 18.8053 127.815 18.688 127.639 18.592C127.468 18.496 127.236 18.424 126.943 18.376C126.655 18.328 126.29 18.304 125.847 18.304C125.906 17.792 125.951 17.3067 125.983 16.848C126.015 16.384 126.042 15.92 126.063 15.456H128.895V16.272H126.887C126.882 16.3627 126.874 16.4667 126.863 16.584C126.858 16.696 126.85 16.8107 126.839 16.928C126.834 17.0453 126.826 17.1573 126.815 17.264C126.804 17.3707 126.794 17.4613 126.783 17.536C127.572 17.5787 128.154 17.76 128.527 18.08C128.906 18.3947 129.095 18.8267 129.095 19.376C129.095 19.6267 129.052 19.8587 128.967 20.072C128.882 20.2853 128.751 20.4693 128.575 20.624C128.399 20.7787 128.178 20.9013 127.911 20.992C127.644 21.0773 127.332 21.12 126.975 21.12C126.831 21.12 126.684 21.1093 126.535 21.088C126.386 21.0667 126.242 21.04 126.103 21.008C125.97 20.9813 125.85 20.952 125.743 20.92C125.636 20.888 125.556 20.8587 125.503 20.832L125.687 20.016C125.799 20.0693 125.959 20.128 126.167 20.192C126.38 20.2507 126.639 20.28 126.943 20.28C127.151 20.28 127.33 20.2587 127.479 20.216C127.628 20.168 127.748 20.104 127.839 20.024C127.935 19.944 128.004 19.8533 128.047 19.752C128.09 19.6453 128.111 19.5333 128.111 19.416Z" fill="var(--fill-0, white)"/>
<path d="M112.5 17.4764C112.487 24.3635 118.177 29.9952 125.155 30C128.424 30.0023 131.404 28.7821 133.651 26.7771C133.912 26.545 133.922 26.1449 133.674 25.9001L132.808 25.0453C132.577 24.817 132.207 24.8104 131.963 25.0254C130.157 26.6151 127.776 27.5806 125.164 27.5806C119.519 27.5806 114.951 23.0712 114.951 17.5C114.951 11.928 119.52 7.41935 125.164 7.41935C127.999 7.41935 130.562 8.55716 132.411 10.3953L129.904 12.8355C129.514 13.2153 129.786 13.871 130.334 13.871H136.887C137.226 13.871 137.5 13.6001 137.5 13.2661V6.88725C137.5 6.3504 136.844 6.07964 136.457 6.4566L134.154 8.69824C131.86 6.41467 128.68 5 125.164 5C118.178 5 112.513 10.5837 112.5 17.4764Z" fill="var(--fill-0, white)"/>
</g>
</g>
</svg>
