<svg xmlns="http://www.w3.org/2000/svg" width="73" height="12" viewBox="0 0 73 12" fill="none">
    <path d="M6 0L7.5 4H12L8.5 6.5L10 10.5L6 8L2 10.5L3.5 6.5L0 4H4.5L6 0Z" fill="#EC8F32"/>
    <path d="M18 0L19.5 4H24L20.5 6.5L22 10.5L18 8L14 10.5L15.5 6.5L12 4H16.5L18 0Z" fill="#EC8F32"/>
    <path d="M30 0L31.5 4H36L32.5 6.5L34 10.5L30 8L26 10.5L27.5 6.5L24 4H28.5L30 0Z" fill="#EC8F32"/>
    <path d="M42 0L43.5 4H48L44.5 6.5L46 10.5L42 8L38 10.5L39.5 6.5L36 4H40.5L42 0Z" fill="#EC8F32"/>
    <path d="M54 0L55.5 4H60L56.5 6.5L58 10.5L54 8L50 10.5L51.5 6.5L48 4H52.5L54 0Z" fill="#EC8F32"/>
    <path d="M66 0L67.5 4H72L68.5 6.5L70 10.5L66 8L62 10.5L63.5 6.5L60 4H64.5L66 0Z" fill="#ADADAD"/>
</svg> 