<svg preserveAspectRatio="none" width="100%" height="100%" overflow="visible" style="display: block;" viewBox="0 0 44 26" fill="none" xmlns="http://www.w3.org/2000/svg">
<path id="Vector" fill-rule="evenodd" clip-rule="evenodd" d="M42.9786 1.79656C43.2929 0.782626 42.9786 0.0546748 41.5119 0.0546748H36.6667C36.2221 0.0328778 35.7816 0.148761 35.4063 0.386296C35.0309 0.623832 34.7392 0.971281 34.5714 1.38059C33.1224 4.89127 31.1827 8.182 28.8095 11.1559C27.6833 12.2739 27.1857 12.6378 26.5833 12.6378C25.981 12.6378 25.8238 12.2738 25.8238 11.2339V1.77056C25.8238 0.548641 25.4571 0.00267834 24.4357 0.00267834H16.7881C16.6325 -0.00791172 16.4763 0.012974 16.329 0.0640692C16.1818 0.115164 16.0465 0.195406 15.9314 0.299931C15.8163 0.404456 15.7238 0.531088 15.6595 0.672155C15.5951 0.813222 15.5603 0.965786 15.5571 1.1206C15.5571 2.26453 17.2857 2.55051 17.469 5.77429V12.8198C17.469 14.3537 17.2071 14.6137 16.5786 14.6137C14.9548 14.6137 11 8.66009 8.72143 1.84855C8.14524 0.522643 7.7 0.00267834 6.46905 0.00267834H1.62381C0.235714 0.00267834 0 0.652634 0 1.35459C0 2.6025 1.62381 8.89408 7.59524 17.2135C9.16028 19.7357 11.3107 21.8495 13.8668 23.3782C16.4228 24.9069 19.3104 25.8062 22.2881 26.0009C25.3524 26.0009 25.719 25.325 25.719 24.1551V19.8133C25.719 18.4094 26.0071 18.1755 26.9762 18.1755C27.9452 18.1755 28.9405 18.5654 31.7952 21.2952C35.0429 24.519 35.5929 26.0009 37.4262 26.0009H42.2191C43.6071 26.0009 44.2619 25.299 43.8952 23.9731C42.8789 21.8825 41.5054 19.9825 39.8357 18.3574C38.7357 17.0835 37.0595 15.6276 36.5357 14.9517C36.0119 14.2757 36.0119 13.6518 36.5357 12.8198C36.4833 12.8198 42.35 4.57837 42.9786 1.79656Z" fill="var(--fill-0, #787878)"/>
</svg>
