<svg preserveAspectRatio="none" width="100%" height="100%" overflow="visible" style="display: block;" viewBox="0 0 37 26" fill="none" xmlns="http://www.w3.org/2000/svg">
<path id="Vector" d="M36.2148 4.08407C36.0111 3.29764 35.6022 2.57883 35.0296 2.00052C34.457 1.42221 33.741 1.00497 32.9541 0.791113C28.1593 0.210619 23.3308 -0.0509399 18.501 0.00817439C13.6712 -0.0509399 8.84278 0.210619 4.04789 0.791113C3.25682 1.00142 2.536 1.41709 1.95907 1.99563C1.38214 2.57418 0.969787 3.29487 0.764143 4.08407C0.237361 7.02524 -0.0180784 10.0082 0.00101823 12.9958C-0.0185762 15.9843 0.244671 18.9681 0.787269 21.9075C0.990928 22.6939 1.3998 23.4127 1.97244 23.991C2.54507 24.5693 3.26109 24.9865 4.04789 25.2004C8.84278 25.7809 13.6712 26.0425 18.501 25.9833C23.3308 26.0425 28.1593 25.7809 32.9541 25.2004C33.7452 24.9901 34.466 24.5744 35.043 23.9959C35.6199 23.4173 36.0323 22.6967 36.2379 21.9075C36.7647 18.9663 37.0201 15.9833 37.001 12.9958C37.0206 10.0072 36.7574 7.02344 36.2148 4.08407ZM14.7085 18.4763V7.51518L24.3979 12.9958L14.7085 18.4763Z" fill="var(--fill-0, #787878)"/>
</svg>
